<svg width="191" height="45" xmlns="http://www.w3.org/2000/svg">
  <g fill="none" fill-rule="evenodd">
    <path d="M124.661 2.626l-7.575 14.9a.714.714 0 0 1-.64.39h-2.497a.725.725 0 0 1-.64-.39l-7.572-14.9a.83.83 0 0 1 .02-.788l.808-1.399a.878.878 0 0 1 .761-.439h.734c.19 0 .368.106.451.28l6.365 12.662a.362.362 0 0 0 .646 0L121.883.28a.502.502 0 0 1 .455-.28h.73a.88.88 0 0 1 .762.439l.81 1.403c.14.241.148.536.021.784zm-37.512 0l-7.575 14.9a.714.714 0 0 1-.64.39h-2.497a.725.725 0 0 1-.64-.39l-7.572-14.9a.83.83 0 0 1 .02-.788l.81-1.4A.873.873 0 0 1 69.81 0h.737c.19 0 .368.106.451.28l6.365 12.662a.362.362 0 0 0 .646 0L84.371.28a.502.502 0 0 1 .455-.28h.733c.312 0 .601.166.757.438l.812 1.404c.14.241.148.536.021.784zM97.998.212a.728.728 0 0 1 .214.517v16.468a.72.72 0 0 1-.72.719H95.4a.726.726 0 0 1-.726-.725V2.25a.83.83 0 0 1 .11-.411l.808-1.401a.873.873 0 0 1 .758-.44h1.133c.2 0 .383.082.514.213zm35.109.226a.876.876 0 0 1 .758-.438h10.847a.86.86 0 0 1 .743.427l.764 1.315c.108.187.166.401.166.619v.326a.494.494 0 0 1-.493.492h-9.888a.363.363 0 0 0-.362.363V6.97c0 .199.162.361.36.361h6.702a.597.597 0 0 1 .59.595v1.972a.596.596 0 0 1-.594.595h-6.697a.361.361 0 0 0-.361.36v3.522c0 .2.162.362.36.362h9.89c.272 0 .493.219.493.489v.326c0 .22-.058.434-.166.621l-.764 1.319a.863.863 0 0 1-.743.427h-10.847a.878.878 0 0 1-.758-.438l-.754-1.302a1.234 1.234 0 0 1-.168-.621l.002-13.2c0-.216.057-.431.166-.62l.754-1.302zm28.759-.38a6.417 6.417 0 0 1 1.625.19 5.954 5.954 0 0 1 3.106 1.984c1.4 1.712 1.788 3.891 1.869 5.907.078 1.928-.254 3.902-1.188 5.683-1 1.908-2.786 3.464-5.275 4.013l-.168.036-5.867.001c-.37 0-.716-.154-.926-.41l-.951-1.168a.833.833 0 0 1-.194-.529l.002-12.966-.002-.6c0-.186.065-.367.187-.522l.963-1.215c.206-.26.554-.418.925-.417l5.894.012zm-5.175 14.307c-.001.204.2.37.448.37h4.05c2.649-.172 3.858-2.177 4.203-4.116a9.687 9.687 0 0 0-.19-4.296c-.23-.83-.62-1.663-1.307-2.313-.55-.518-1.366-.969-2.23-.995h-4.488c-.247 0-.448.165-.448.37l-.038 10.98zM178.502.053c.314 0 .569.25.569.565.003 2.097.012 9.398.009 11.227-.005 3.032 4.008 3.032 4.008 3.032s3.958 0 3.958-3.032l.033-11.232a.561.561 0 0 1 .561-.56h.801c.238 0 .462.115.602.31l.964 1.34a.85.85 0 0 1 .157.49l.004 9.652s.006.26-.007.446a5.71 5.71 0 0 1-.263 1.366 5.43 5.43 0 0 1-.905 1.696 5.903 5.903 0 0 1-1.93 1.549c-1.378.707-3.028 1.068-4.603.938a8.173 8.173 0 0 1-.869-.118 8.57 8.57 0 0 1-2.062-.652c-.784-.37-1.49-.876-2.045-1.511-.688-.786-1.116-1.738-1.326-2.728a14.662 14.662 0 0 1-.148-.975l-.001-.026V2.197c0-.178.056-.351.16-.495l1.028-1.415a.567.567 0 0 1 .458-.234h.847z" fill="#231916"/>
    <path d="M45.333.096l4.201 6.769a3.59 3.59 0 0 1 .066 3.68L31.104 42.857a3.592 3.592 0 0 1-3.119 1.808h-8.05L45.333.095zM8.208 24.128c-.11-.186-5.662-9.825-7.734-13.448a3.591 3.591 0 0 1 .001-3.569l2.983-5.208A3.584 3.584 0 0 1 6.571.095C13.924.094 39.109.033 39.108.035c0 0-22.624 38.603-22.626 38.601l-4.952-8.647S23.477 9.231 23.474 9.231c0 0-13.296-.002-13.294 0l3.333 5.879-5.305 9.018z" fill="#00B3E5"/>
    <text font-family="MicrosoftYaHei, Microsoft YaHei" font-size="20" letter-spacing="2.778" fill="#231916">
      <tspan x="66.111" y="43">内</tspan>
    </text>
    <text font-family="MicrosoftYaHei, Microsoft YaHei" font-size="20" letter-spacing="2.778" fill="#231916">
      <tspan x="119.111" y="43">容</tspan>
    </text>
    <text font-family="MicrosoftYaHei, Microsoft YaHei" font-size="20" letter-spacing="2.778" fill="#231916">
      <tspan x="170.111" y="43">云</tspan>
    </text>
  </g>
</svg>
